<svg xmlns="http://www.w3.org/2000/svg" width="550" height="550" enable-background="new 0 0 550 550" version="1" viewBox="0 0 550 550"><path fill="none" stroke="#000" stroke-linejoin="round" stroke-miterlimit="10" stroke-width="20" d="M171.511 495.859l219.872 30.219 107.85-89.012 29.555-228.553M143.5 510.809c0 3.375-2.737 5.691-6.113 5.691H27.613c-3.376 0-6.113-2.316-6.113-5.691V214.035c0-3.376 2.737-6.535 6.113-6.535h109.773c3.376 0 6.113 3.158 6.113 6.535V510.809z"/><circle cx="82.588" cy="272.554" r="18.877" fill="none" stroke="#000" stroke-linejoin="round" stroke-miterlimit="10" stroke-width="20"/><path fill="none" stroke="#000" stroke-linejoin="round" stroke-miterlimit="10" stroke-width="20" d="M332.322,199.401
		l9.464-140.874c1.382-19.201-13.238-35.027-32.488-35.027h-37.256l-48.91,200.32l-51.654,11.804
		c-13.999,3.062-25.978,11.286-25.978,25.467v209.09c0,14.182,11.796,25.678,25.978,25.678l219.89,30.219l109.412-90.855
		l28.003-226.709c0-14.181-11.462-25.678-25.643-25.678L332.322,199.401z"/></svg>